<svg xmlns="http://www.w3.org/2000/svg" version="1.1" xmlns:xlink="http://www.w3.org/1999/xlink" xmlns:svgjs="http://svgjs.com/svgjs" width="1440" height="1000" preserveAspectRatio="none" viewBox="0 0 1440 1000"><g mask="url(&quot;#SvgjsMask1032&quot;)" fill="none"><rect width="1440" height="1000" x="0" y="0" fill="#0e2a47"></rect><path d="M800.892,442.801C835.503,440.936,866.286,423.203,884.62,393.788C904.208,362.36,912.561,323.684,895.679,290.723C877.373,254.981,840.989,228.114,800.892,230.313C763.436,232.367,741.423,267.799,722.549,300.217C703.501,332.935,681.692,370.563,699.923,403.743C718.548,437.641,762.27,444.883,800.892,442.801" fill="rgba(28, 83, 142, 0.4)" class="triangle-float3"></path><path d="M1133.43,220.94C1177.308,220.839,1222.349,210.549,1247.036,174.275C1274.934,133.283,1281.993,80.103,1259.277,36.027C1234.677,-11.705,1187.006,-49.779,1133.43,-46.154C1083.807,-42.796,1056.872,7.112,1033.986,51.27C1013.529,90.743,996.437,136.442,1018.918,174.798C1041.221,212.852,1089.322,221.041,1133.43,220.94" fill="rgba(28, 83, 142, 0.4)" class="triangle-float1"></path><path d="M648.097,992.906C742.729,990.698,834.324,946.361,878.95,862.882C921.446,783.388,898.879,688.856,851.692,612.054C807.02,539.345,733.328,491.383,648.097,487.145C554.295,482.481,457.14,511.042,406.132,589.901C350.961,675.195,345.508,787.02,397.797,874.11C448.749,958.973,549.14,995.215,648.097,992.906" fill="rgba(28, 83, 142, 0.4)" class="triangle-float2"></path><path d="M1458.749,1109.371C1551.154,1108.878,1636.084,1062.857,1685.36,984.686C1738.382,900.572,1760.489,794.444,1711.976,707.651C1662.486,619.112,1559.844,571.006,1458.749,579.266C1369.11,586.59,1312.606,665.629,1268.306,743.9C1224.917,820.561,1187.201,909.01,1227.907,987.128C1271.032,1069.888,1365.428,1109.869,1458.749,1109.371" fill="rgba(28, 83, 142, 0.4)" class="triangle-float2"></path><path d="M231.762,320.975C311.675,325.197,384.527,274.785,423.239,204.748C460.736,136.908,454.983,54.825,415.857,-12.089C377.125,-78.329,308.428,-125.938,231.762,-122.721C159.519,-119.689,105.766,-61.945,72.616,2.315C42.495,60.703,43.038,127.433,72.393,186.21C105.709,252.918,157.301,317.041,231.762,320.975" fill="rgba(28, 83, 142, 0.4)" class="triangle-float3"></path><path d="M951.514,776.193C1027.072,778.041,1106.713,749.579,1141.07,682.258C1173.383,618.942,1133.457,549.848,1098.661,487.862C1062.743,423.878,1024.783,348.546,951.514,344.582C873.898,340.383,810.32,401.604,773.937,470.293C739.974,534.413,740.94,610.608,777.368,673.36C813.642,735.847,879.283,774.426,951.514,776.193" fill="rgba(28, 83, 142, 0.4)" class="triangle-float3"></path><path d="M458.325,316.211C493.143,315.456,523.325,294.649,541.073,264.685C559.207,234.069,564.379,196.742,547.708,165.305C529.995,131.901,496.118,107.509,458.325,108.638C422.07,109.721,395.415,138.711,377.733,170.38C360.593,201.079,352.108,237.643,369.115,268.416C386.604,300.063,422.176,316.995,458.325,316.211" fill="rgba(28, 83, 142, 0.4)" class="triangle-float2"></path><path d="M1499.226,518.93C1587.306,519.509,1653.62,448.012,1696.526,371.087C1738.105,296.541,1760.352,204.888,1714.567,132.848C1671.043,64.366,1580.369,60.398,1499.226,60.649C1418.708,60.898,1328.927,65.939,1286.183,134.175C1241.572,205.39,1265.66,295.007,1306.367,368.523C1348.694,444.965,1411.85,518.356,1499.226,518.93" fill="rgba(28, 83, 142, 0.4)" class="triangle-float2"></path><path d="M828.051,248.251C862.964,247.147,895.785,232.181,914.583,202.741C934.999,170.768,943.609,129.866,924.608,97.033C905.633,64.246,865.826,50.372,828.051,53.217C794.766,55.724,771.404,81.553,753.78,109.9C734.705,140.581,714.399,176.702,731.487,208.532C749.131,241.399,790.767,249.43,828.051,248.251" fill="rgba(28, 83, 142, 0.4)" class="triangle-float3"></path><path d="M1142.326,354.12C1191.422,351.904,1236.568,327.223,1261.026,284.595C1285.37,242.167,1282.745,191.381,1260.776,147.676C1235.983,98.354,1197.469,51.025,1142.326,48.458C1083.693,45.729,1031.794,84.477,1003.102,135.682C975.066,185.716,972.67,247.852,1003.496,296.217C1032.38,341.535,1088.641,356.543,1142.326,354.12" fill="rgba(28, 83, 142, 0.4)" class="triangle-float3"></path><path d="M1152.038,524.033C1232.904,530.205,1314.802,492.542,1354.822,422.003C1394.404,352.235,1380.895,265.268,1336.896,198.198C1296.999,137.38,1224.773,113.476,1152.038,112.885C1078.025,112.283,997.65,130.341,961.901,195.15C926.956,258.501,960.394,332.028,996.606,394.664C1032.767,457.211,1079.999,518.535,1152.038,524.033" fill="rgba(28, 83, 142, 0.4)" class="triangle-float1"></path><path d="M1035.816,810.496C1112.224,811.921,1174.372,754.206,1210.296,686.755C1243.955,623.557,1245.466,547.641,1208.458,486.344C1172.627,426.997,1105.125,399.27,1035.816,397.759C963.325,396.179,885.936,415.761,849.624,478.521C813.269,541.356,836.747,617.134,872.258,680.449C908.777,745.561,961.175,809.104,1035.816,810.496" fill="rgba(28, 83, 142, 0.4)" class="triangle-float1"></path><path d="M740.865,551.698C804.037,549.04,864.247,525.685,899.469,473.176C939.468,413.545,960.89,337.441,927.074,274.098C891.668,207.778,816.02,174.168,740.865,176.086C668.968,177.921,606.93,221.236,570.419,283.199C533.276,346.235,518.116,425.801,557.328,487.571C594.554,546.212,671.467,554.618,740.865,551.698" fill="rgba(28, 83, 142, 0.4)" class="triangle-float2"></path><path d="M581.036,1018.141C622.084,1019.641,665.683,1008.728,687.047,973.646C709.106,937.422,700.545,892.398,680.307,855.126C658.918,815.735,625.829,780.06,581.036,778.409C533.841,776.669,489.237,805.013,468.222,847.307C449.046,885.901,463.901,930.397,487.649,966.358C508.672,998.193,542.911,1016.747,581.036,1018.141" fill="rgba(28, 83, 142, 0.4)" class="triangle-float2"></path><path d="M1196.322,636.442C1288.559,640.681,1370.629,577.444,1412.842,495.325C1451.771,419.595,1432.663,332.183,1390.858,258.002C1348.102,182.134,1283.367,108.438,1196.322,111.125C1112.117,113.724,1059.486,194.191,1021.53,269.401C988.095,335.653,979.826,409.889,1011.733,476.89C1049.211,555.59,1109.246,632.44,1196.322,636.442" fill="rgba(28, 83, 142, 0.4)" class="triangle-float1"></path><path d="M841.569,524.215C931.763,528.092,1026.318,501.474,1073.847,424.722C1123.54,344.474,1116.334,240.922,1066.724,160.623C1019.514,84.209,931.386,49.584,841.569,48.76C750.058,47.92,653.847,76.572,609.14,156.423C565.192,234.918,593.42,330.091,641.479,406.138C685.822,476.305,758.642,520.651,841.569,524.215" fill="rgba(28, 83, 142, 0.4)" class="triangle-float3"></path><path d="M1487.196,937.259C1549.529,939.339,1611.432,909.572,1640.984,854.65C1669.294,802.037,1650.863,740.356,1620.983,688.618C1591.112,636.894,1546.865,591.051,1487.196,588.358C1423.268,585.472,1360.852,619.063,1330.714,675.515C1302.018,729.267,1318.946,792.65,1350.212,844.948C1380.495,895.601,1428.214,935.291,1487.196,937.259" fill="rgba(28, 83, 142, 0.4)" class="triangle-float1"></path><path d="M390.248,422.753C471.104,415.815,530.989,356.052,571.352,285.648C611.445,215.716,637.383,131.484,597.345,61.52C557.108,-8.791,471.243,-29.244,390.248,-30.82C305.615,-32.467,216.88,-16.423,168.701,53.178C113.811,132.474,96.329,239.438,145.914,322.154C194.451,403.121,296.193,430.824,390.248,422.753" fill="rgba(28, 83, 142, 0.4)" class="triangle-float3"></path><path d="M229.325,1309.974C329.491,1316.263,439.33,1298.568,493.332,1213.972C550.56,1124.323,537.408,1006.382,480.471,916.548C427.309,832.67,328.623,798.684,229.325,797.43C127.323,796.142,16.032,820.639,-33.052,910.064C-80.938,997.307,-37.488,1100.863,17.105,1184.073C65.465,1257.783,141.34,1304.45,229.325,1309.974" fill="rgba(28, 83, 142, 0.4)" class="triangle-float1"></path><path d="M1272.382,351.206C1307.985,351.184,1347.105,345.72,1365.262,315.095C1383.671,284.044,1373.291,244.808,1353.273,214.769C1335.478,188.065,1304.455,176.752,1272.382,175.72C1237.94,174.612,1201.073,180.593,1181.946,209.257C1160.929,240.754,1158.957,283.275,1179.303,315.21C1198.461,345.28,1236.728,351.228,1272.382,351.206" fill="rgba(28, 83, 142, 0.4)" class="triangle-float2"></path></g><defs><mask id="SvgjsMask1032"><rect width="1440" height="1000" fill="#ffffff"></rect></mask><style>
            @keyframes float1 {
                0%{transform: translate(0, 0)}
                50%{transform: translate(-10px, 0)}
                100%{transform: translate(0, 0)}
            }

            .triangle-float1 {
                animation: float1 5s infinite;
            }

            @keyframes float2 {
                0%{transform: translate(0, 0)}
                50%{transform: translate(-5px, -5px)}
                100%{transform: translate(0, 0)}
            }

            .triangle-float2 {
                animation: float2 4s infinite;
            }

            @keyframes float3 {
                0%{transform: translate(0, 0)}
                50%{transform: translate(0, -10px)}
                100%{transform: translate(0, 0)}
            }

            .triangle-float3 {
                animation: float3 6s infinite;
            }
        </style></defs></svg>